<?xml version="1.0" encoding="UTF-8" standalone="no"?>
<!DOCTYPE svg PUBLIC "-//W3C//DTD SVG 1.1//EN"
 "http://www.w3.org/Graphics/SVG/1.1/DTD/svg11.dtd">
<!-- Generated by graphviz version 12.2.1 (20241206.2353)
 -->
<!-- Title: G Pages: 1 -->
<svg width="1258pt" height="519pt"
 viewBox="0.00 0.00 1258.00 519.00" xmlns="http://www.w3.org/2000/svg" xmlns:xlink="http://www.w3.org/1999/xlink">
<g id="graph0" class="graph" transform="scale(1 1) rotate(0) translate(4 515)">
<title>G</title>
<polygon fill="white" stroke="none" points="-4,4 -4,-515 1254,-515 1254,4 -4,4"/>
<g id="clust1" class="cluster">
<title>cluster_module.compute</title>
<polygon fill="none" stroke="black" points="828,-8 828,-137 1242,-137 1242,-8 828,-8"/>
<text text-anchor="middle" x="1035" y="-119.7" font-family="sans-serif" font-size="14.00">module.compute</text>
</g>
<g id="clust2" class="cluster">
<title>cluster_module.database</title>
<polygon fill="none" stroke="black" points="355.75,-237 355.75,-312 773.5,-312 773.5,-237 355.75,-237"/>
<text text-anchor="middle" x="564.62" y="-294.7" font-family="sans-serif" font-size="14.00">module.database</text>
</g>
<g id="clust3" class="cluster">
<title>cluster_module.networking</title>
<polygon fill="none" stroke="black" points="8,-320 8,-503 808,-503 808,-320 8,-320"/>
<text text-anchor="middle" x="408" y="-485.7" font-family="sans-serif" font-size="14.00">module.networking</text>
</g>
<g id="clust4" class="cluster">
<title>cluster_module.security</title>
<polygon fill="none" stroke="black" points="150.75,-154 150.75,-229 534.75,-229 534.75,-154 150.75,-154"/>
<text text-anchor="middle" x="342.75" y="-211.7" font-family="sans-serif" font-size="14.00">module.security</text>
</g>
<!-- module.compute.aws_autoscaling_group.web -->
<g id="node1" class="node">
<title>module.compute.aws_autoscaling_group.web</title>
<polygon fill="none" stroke="black" points="1234,-52 1047.75,-52 1047.75,-16 1234,-16 1234,-52"/>
<text text-anchor="middle" x="1140.88" y="-28.2" font-family="sans-serif" font-size="14.00">aws_autoscaling_group.web</text>
</g>
<!-- module.compute.aws_launch_template.web -->
<g id="node2" class="node">
<title>module.compute.aws_launch_template.web</title>
<polygon fill="none" stroke="black" points="1011.75,-106 836,-106 836,-70 1011.75,-70 1011.75,-106"/>
<text text-anchor="middle" x="923.88" y="-82.2" font-family="sans-serif" font-size="14.00">aws_launch_template.web</text>
</g>
<!-- module.compute.aws_autoscaling_group.web&#45;&gt;module.compute.aws_launch_template.web -->
<g id="edge1" class="edge">
<title>module.compute.aws_autoscaling_group.web&#45;&gt;module.compute.aws_launch_template.web</title>
<path fill="none" stroke="black" d="M1066.49,-52.43C1048.08,-57.06 1028.19,-62.05 1009.29,-66.8"/>
<polygon fill="black" stroke="black" points="1008.61,-63.36 999.77,-69.19 1010.32,-70.15 1008.61,-63.36"/>
</g>
<!-- module.compute.aws_lb_target_group.web -->
<g id="node4" class="node">
<title>module.compute.aws_lb_target_group.web</title>
<polygon fill="none" stroke="black" points="1009.12,-52 838.62,-52 838.62,-16 1009.12,-16 1009.12,-52"/>
<text text-anchor="middle" x="923.88" y="-28.2" font-family="sans-serif" font-size="14.00">aws_lb_target_group.web</text>
</g>
<!-- module.compute.aws_autoscaling_group.web&#45;&gt;module.compute.aws_lb_target_group.web -->
<g id="edge2" class="edge">
<title>module.compute.aws_autoscaling_group.web&#45;&gt;module.compute.aws_lb_target_group.web</title>
<path fill="none" stroke="black" d="M1047.45,-34C1038.66,-34 1029.74,-34 1020.93,-34"/>
<polygon fill="black" stroke="black" points="1020.93,-30.5 1010.93,-34 1020.93,-37.5 1020.93,-30.5"/>
</g>
<!-- module.database.aws_db_instance.mysql -->
<g id="node5" class="node">
<title>module.database.aws_db_instance.mysql</title>
<polygon fill="none" stroke="black" points="765.5,-281 605.5,-281 605.5,-245 765.5,-245 765.5,-281"/>
<text text-anchor="middle" x="685.5" y="-257.2" font-family="sans-serif" font-size="14.00">aws_db_instance.mysql</text>
</g>
<!-- module.compute.aws_launch_template.web&#45;&gt;module.database.aws_db_instance.mysql -->
<g id="edge3" class="edge">
<title>module.compute.aws_launch_template.web&#45;&gt;module.database.aws_db_instance.mysql</title>
<path fill="none" stroke="black" d="M898.03,-106.4C855.47,-137.91 768.57,-202.24 720.45,-237.86"/>
<polygon fill="black" stroke="black" points="718.54,-234.92 712.59,-243.69 722.71,-240.55 718.54,-234.92"/>
</g>
<!-- module.compute.aws_lb.web -->
<g id="node3" class="node">
<title>module.compute.aws_lb.web</title>
<polygon fill="none" stroke="black" points="1184.12,-106 1097.62,-106 1097.62,-70 1184.12,-70 1184.12,-106"/>
<text text-anchor="middle" x="1140.88" y="-82.2" font-family="sans-serif" font-size="14.00">aws_lb.web</text>
</g>
<!-- module.networking.aws_subnet.public -->
<g id="node13" class="node">
<title>module.networking.aws_subnet.public</title>
<polygon fill="none" stroke="black" points="512.88,-472 385.88,-472 385.88,-436 512.88,-436 512.88,-472"/>
<text text-anchor="middle" x="449.38" y="-448.2" font-family="sans-serif" font-size="14.00">aws_subnet.public</text>
</g>
<!-- module.compute.aws_lb.web&#45;&gt;module.networking.aws_subnet.public -->
<g id="edge4" class="edge">
<title>module.compute.aws_lb.web&#45;&gt;module.networking.aws_subnet.public</title>
<path fill="none" stroke="black" d="M1129.28,-106.31C1093.4,-166.31 969.62,-357.41 808,-432 717.21,-473.9 599.43,-471.86 524.35,-464.53"/>
<polygon fill="black" stroke="black" points="524.95,-461.08 514.65,-463.52 524.23,-468.04 524.95,-461.08"/>
</g>
<!-- module.security.aws_security_group.web -->
<g id="node16" class="node">
<title>module.security.aws_security_group.web</title>
<polygon fill="none" stroke="black" points="323.25,-198 158.75,-198 158.75,-162 323.25,-162 323.25,-198"/>
<text text-anchor="middle" x="241" y="-174.2" font-family="sans-serif" font-size="14.00">aws_security_group.web</text>
</g>
<!-- module.compute.aws_lb.web&#45;&gt;module.security.aws_security_group.web -->
<g id="edge5" class="edge">
<title>module.compute.aws_lb.web&#45;&gt;module.security.aws_security_group.web</title>
<path fill="none" stroke="black" d="M1097.15,-98.68C1072.37,-104.45 1040.48,-111.16 1011.75,-115 722.28,-153.66 644.71,-110.67 355.75,-153 344.83,-154.6 333.42,-156.74 322.21,-159.11"/>
<polygon fill="black" stroke="black" points="321.6,-155.67 312.58,-161.23 323.1,-162.5 321.6,-155.67"/>
</g>
<!-- module.networking.aws_vpc.main -->
<g id="node14" class="node">
<title>module.networking.aws_vpc.main</title>
<polygon fill="none" stroke="black" points="118.25,-364 16,-364 16,-328 118.25,-328 118.25,-364"/>
<text text-anchor="middle" x="67.12" y="-340.2" font-family="sans-serif" font-size="14.00">aws_vpc.main</text>
</g>
<!-- module.compute.aws_lb_target_group.web&#45;&gt;module.networking.aws_vpc.main -->
<g id="edge6" class="edge">
<title>module.compute.aws_lb_target_group.web&#45;&gt;module.networking.aws_vpc.main</title>
<path fill="none" stroke="black" d="M838.36,-21.92C684.38,-4.77 355.21,8.84 150.75,-150 97.84,-191.11 78.42,-272.4 71.6,-316.27"/>
<polygon fill="black" stroke="black" points="68.15,-315.69 70.21,-326.09 75.08,-316.68 68.15,-315.69"/>
</g>
<!-- module.database.aws_db_subnet_group.db -->
<g id="node6" class="node">
<title>module.database.aws_db_subnet_group.db</title>
<polygon fill="none" stroke="black" points="535,-281 363.75,-281 363.75,-245 535,-245 535,-281"/>
<text text-anchor="middle" x="449.38" y="-257.2" font-family="sans-serif" font-size="14.00">aws_db_subnet_group.db</text>
</g>
<!-- module.database.aws_db_instance.mysql&#45;&gt;module.database.aws_db_subnet_group.db -->
<g id="edge7" class="edge">
<title>module.database.aws_db_instance.mysql&#45;&gt;module.database.aws_db_subnet_group.db</title>
<path fill="none" stroke="black" d="M605.24,-263C586.38,-263 566.07,-263 546.55,-263"/>
<polygon fill="black" stroke="black" points="546.68,-259.5 536.68,-263 546.68,-266.5 546.68,-259.5"/>
</g>
<!-- module.security.aws_security_group.db -->
<g id="node15" class="node">
<title>module.security.aws_security_group.db</title>
<polygon fill="none" stroke="black" points="526.75,-198 372,-198 372,-162 526.75,-162 526.75,-198"/>
<text text-anchor="middle" x="449.38" y="-174.2" font-family="sans-serif" font-size="14.00">aws_security_group.db</text>
</g>
<!-- module.database.aws_db_instance.mysql&#45;&gt;module.security.aws_security_group.db -->
<g id="edge8" class="edge">
<title>module.database.aws_db_instance.mysql&#45;&gt;module.security.aws_security_group.db</title>
<path fill="none" stroke="black" d="M632.54,-244.58C597.23,-232.06 550.33,-215.43 512.96,-202.19"/>
<polygon fill="black" stroke="black" points="514.21,-198.92 503.62,-198.87 511.87,-205.51 514.21,-198.92"/>
</g>
<!-- module.networking.aws_subnet.private -->
<g id="node12" class="node">
<title>module.networking.aws_subnet.private</title>
<polygon fill="none" stroke="black" points="307.12,-364 174.88,-364 174.88,-328 307.12,-328 307.12,-364"/>
<text text-anchor="middle" x="241" y="-340.2" font-family="sans-serif" font-size="14.00">aws_subnet.private</text>
</g>
<!-- module.database.aws_db_subnet_group.db&#45;&gt;module.networking.aws_subnet.private -->
<g id="edge9" class="edge">
<title>module.database.aws_db_subnet_group.db&#45;&gt;module.networking.aws_subnet.private</title>
<path fill="none" stroke="black" d="M402.57,-281.42C371.71,-293.83 330.81,-310.28 298.01,-323.47"/>
<polygon fill="black" stroke="black" points="297.05,-320.09 289.08,-327.07 299.66,-326.58 297.05,-320.09"/>
</g>
<!-- module.networking.aws_eip.nat -->
<g id="node7" class="node">
<title>module.networking.aws_eip.nat</title>
<polygon fill="none" stroke="black" points="493.38,-364 405.38,-364 405.38,-328 493.38,-328 493.38,-364"/>
<text text-anchor="middle" x="449.38" y="-340.2" font-family="sans-serif" font-size="14.00">aws_eip.nat</text>
</g>
<!-- module.networking.aws_internet_gateway.igw -->
<g id="node8" class="node">
<title>module.networking.aws_internet_gateway.igw</title>
<polygon fill="none" stroke="black" points="327.75,-418 154.25,-418 154.25,-382 327.75,-382 327.75,-418"/>
<text text-anchor="middle" x="241" y="-394.2" font-family="sans-serif" font-size="14.00">aws_internet_gateway.igw</text>
</g>
<!-- module.networking.aws_internet_gateway.igw&#45;&gt;module.networking.aws_vpc.main -->
<g id="edge10" class="edge">
<title>module.networking.aws_internet_gateway.igw&#45;&gt;module.networking.aws_vpc.main</title>
<path fill="none" stroke="black" d="M178.49,-381.59C169.19,-378.74 159.71,-375.82 150.75,-373 143.77,-370.8 136.47,-368.47 129.23,-366.13"/>
<polygon fill="black" stroke="black" points="130.35,-362.82 119.76,-363.06 128.19,-369.48 130.35,-362.82"/>
</g>
<!-- module.networking.aws_nat_gateway.nat -->
<g id="node9" class="node">
<title>module.networking.aws_nat_gateway.nat</title>
<polygon fill="none" stroke="black" points="758.38,-365 612.62,-365 612.62,-329 758.38,-329 758.38,-365"/>
<text text-anchor="middle" x="685.5" y="-341.2" font-family="sans-serif" font-size="14.00">aws_nat_gateway.nat</text>
</g>
<!-- module.networking.aws_nat_gateway.nat&#45;&gt;module.networking.aws_eip.nat -->
<g id="edge11" class="edge">
<title>module.networking.aws_nat_gateway.nat&#45;&gt;module.networking.aws_eip.nat</title>
<path fill="none" stroke="black" d="M612.34,-346.69C577.76,-346.54 537.02,-346.37 505.04,-346.23"/>
<polygon fill="black" stroke="black" points="505.22,-342.73 495.2,-346.19 505.19,-349.73 505.22,-342.73"/>
</g>
<!-- module.networking.aws_nat_gateway.nat&#45;&gt;module.networking.aws_subnet.public -->
<g id="edge12" class="edge">
<title>module.networking.aws_nat_gateway.nat&#45;&gt;module.networking.aws_subnet.public</title>
<path fill="none" stroke="black" d="M612.27,-358.93C597.8,-363.41 583.29,-369.56 571,-378 548.73,-393.3 556.95,-411.23 535,-427 531.37,-429.61 527.48,-431.97 523.43,-434.11"/>
<polygon fill="black" stroke="black" points="522.02,-430.91 514.47,-438.34 525,-437.24 522.02,-430.91"/>
</g>
<!-- module.networking.aws_route_table.public -->
<g id="node10" class="node">
<title>module.networking.aws_route_table.public</title>
<polygon fill="none" stroke="black" points="526.38,-418 372.38,-418 372.38,-382 526.38,-382 526.38,-418"/>
<text text-anchor="middle" x="449.38" y="-394.2" font-family="sans-serif" font-size="14.00">aws_route_table.public</text>
</g>
<!-- module.networking.aws_route_table.public&#45;&gt;module.networking.aws_internet_gateway.igw -->
<g id="edge13" class="edge">
<title>module.networking.aws_route_table.public&#45;&gt;module.networking.aws_internet_gateway.igw</title>
<path fill="none" stroke="black" d="M372.11,-400C361.46,-400 350.4,-400 339.42,-400"/>
<polygon fill="black" stroke="black" points="339.55,-396.5 329.55,-400 339.55,-403.5 339.55,-396.5"/>
</g>
<!-- module.networking.aws_route_table_association.public -->
<g id="node11" class="node">
<title>module.networking.aws_route_table_association.public</title>
<polygon fill="none" stroke="black" points="800,-423 571,-423 571,-387 800,-387 800,-423"/>
<text text-anchor="middle" x="685.5" y="-399.2" font-family="sans-serif" font-size="14.00">aws_route_table_association.public</text>
</g>
<!-- module.networking.aws_route_table_association.public&#45;&gt;module.networking.aws_route_table.public -->
<g id="edge14" class="edge">
<title>module.networking.aws_route_table_association.public&#45;&gt;module.networking.aws_route_table.public</title>
<path fill="none" stroke="black" d="M570.52,-402.57C559.59,-402.33 548.62,-402.1 538,-401.87"/>
<polygon fill="black" stroke="black" points="538.22,-398.38 528.14,-401.66 538.07,-405.37 538.22,-398.38"/>
</g>
<!-- module.networking.aws_route_table_association.public&#45;&gt;module.networking.aws_subnet.public -->
<g id="edge15" class="edge">
<title>module.networking.aws_route_table_association.public&#45;&gt;module.networking.aws_subnet.public</title>
<path fill="none" stroke="black" d="M596.32,-423.45C572.59,-428.42 547.18,-433.74 524.31,-438.53"/>
<polygon fill="black" stroke="black" points="523.87,-435.04 514.79,-440.52 525.3,-441.89 523.87,-435.04"/>
</g>
<!-- module.networking.aws_subnet.private&#45;&gt;module.networking.aws_vpc.main -->
<g id="edge16" class="edge">
<title>module.networking.aws_subnet.private&#45;&gt;module.networking.aws_vpc.main</title>
<path fill="none" stroke="black" d="M174.53,-346C159.93,-346 144.5,-346 130.05,-346"/>
<polygon fill="black" stroke="black" points="130.22,-342.5 120.22,-346 130.22,-349.5 130.22,-342.5"/>
</g>
<!-- module.networking.aws_subnet.public&#45;&gt;module.networking.aws_vpc.main -->
<g id="edge17" class="edge">
<title>module.networking.aws_subnet.public&#45;&gt;module.networking.aws_vpc.main</title>
<path fill="none" stroke="black" d="M385.41,-460.18C322.92,-463.66 225.87,-461.72 150.75,-427 125.01,-415.1 102.54,-391.7 87.55,-373.1"/>
<polygon fill="black" stroke="black" points="90.44,-371.11 81.55,-365.35 84.91,-375.4 90.44,-371.11"/>
</g>
<!-- module.security.aws_security_group.db&#45;&gt;module.security.aws_security_group.web -->
<g id="edge18" class="edge">
<title>module.security.aws_security_group.db&#45;&gt;module.security.aws_security_group.web</title>
<path fill="none" stroke="black" d="M371.53,-180C359.51,-180 346.98,-180 334.65,-180"/>
<polygon fill="black" stroke="black" points="334.92,-176.5 324.92,-180 334.92,-183.5 334.92,-176.5"/>
</g>
<!-- module.security.aws_security_group.web&#45;&gt;module.networking.aws_vpc.main -->
<g id="edge19" class="edge">
<title>module.security.aws_security_group.web&#45;&gt;module.networking.aws_vpc.main</title>
<path fill="none" stroke="black" d="M220.95,-198.4C190.36,-227.94 130.2,-286.05 95.17,-319.88"/>
<polygon fill="black" stroke="black" points="93.11,-317 88.35,-326.47 97.97,-322.04 93.11,-317"/>
</g>
</g>
</svg>
